# xmcd
#
# Track frame offsets:
#	150
#	21688
#	44990
#	57033
#	78794
#	97896
#	119886
#	138167
#	159715
#	183906
#	206207
#	226953
#
# Disc length: 3341 seconds
#
# Revision: 1
# Processed by: cddbd v1.5.2PL0 Copyright (c) Steve Scherf et al.
# Submitted via: EasyCDDAExtractor 11.0.0.1
#
DISCID=aa0d0b0c
DTITLE=김동률 - Thanks - The Best Songs1994-2004 CD1
DYEAR=1900
DGENRE=
TTITLE0=감사
TTITLE1=기억의 습작
TTITLE2=여행
TTITLE3=하늘 높이
TTITLE4=그대가 너무 많은
TTITLE5=이방인
TTITLE6=J's Bar에서
TTITLE7=새
TTITLE8=취중진담
TTITLE9=졸업
TTITLE10=첫사랑
TTITLE11=우리
EXTD=
EXTT0=
EXTT1=
EXTT2=
EXTT3=
EXTT4=
EXTT5=
EXTT6=
EXTT7=
EXTT8=
EXTT9=
EXTT10=
EXTT11=
PLAYORDER=
